<?xml version="1.0" standalone="no"?>
<!DOCTYPE svg PUBLIC "-//W3C//DTD SVG 20010904//EN"
 "http://www.w3.org/TR/2001/REC-SVG-20010904/DTD/svg10.dtd">
<svg version="1.0" xmlns="http://www.w3.org/2000/svg"
 width="1200.000000pt" height="633.000000pt" viewBox="0 0 1200.000000 633.000000"
 preserveAspectRatio="xMidYMid meet">

<g transform="translate(0.000000,633.000000) scale(0.100000,-0.100000)"
fill="#000000" stroke="none">
<path d="M2997 6323 c1652 -2 4354 -2 6005 0 1652 1 301 2 -3002 2 -3303 0
-4654 -1 -3003 -2z"/>
<path d="M10869 4303 c-14 -3 -43 -80 -235 -620 l-43 -122 42 -13 c55 -16 186
-16 196 0 4 6 38 100 76 207 38 107 71 195 74 195 3 0 42 -69 86 -153 l80
-152 70 -18 c51 -12 84 -15 123 -10 l52 8 -174 325 -174 325 -74 17 c-40 9
-75 17 -78 16 -3 0 -12 -2 -21 -5z"/>
<path d="M8765 4213 c-19 -4 -20 -9 -13 -131 3 -70 6 -161 7 -203 l1 -75 -92
-13 c-134 -18 -128 -15 -128 -71 0 -49 0 -49 43 -62 23 -7 75 -13 115 -13 59
0 72 -3 72 -16 0 -9 3 -36 6 -61 7 -51 17 -45 -101 -63 l-41 -6 -12 46 c-15
55 -76 125 -129 148 -47 20 -232 57 -285 57 -22 0 -67 -7 -101 -16 -173 -45
-267 -151 -269 -302 -1 -95 41 -170 116 -209 41 -21 199 -63 266 -69 145 -15
335 78 380 186 11 26 16 29 39 22 14 -4 54 -6 89 -5 l62 2 0 -63 0 -64 67 -16
c46 -12 83 -15 121 -10 l55 7 -7 176 c-4 97 -9 214 -12 261 -10 175 -24 466
-24 506 l0 41 -64 11 c-61 12 -120 13 -161 5z m-402 -634 c26 -36 32 -105 13
-150 -22 -52 -83 -102 -148 -123 -74 -23 -97 -19 -126 24 -33 49 -28 132 12
184 64 84 207 121 249 65z"/>
<path d="M8123 4133 l-42 -4 6 -107 6 -108 -177 -24 -176 -24 0 -39 c0 -62 12
-74 87 -87 64 -11 92 -9 453 44 212 31 392 56 399 56 11 0 12 12 7 52 -4 29
-9 54 -11 56 -2 2 -33 10 -69 19 -59 13 -76 13 -167 -2 -56 -9 -103 -15 -104
-13 -2 2 -4 30 -6 63 -4 91 -4 91 -74 109 -35 9 -70 15 -77 14 -7 -1 -32 -3
-55 -5z"/>
<path d="M9421 3752 c-72 -202 -131 -372 -131 -378 0 -18 130 -43 178 -34 24
4 47 12 52 16 5 5 40 99 79 208 39 109 72 201 75 203 2 2 42 -67 88 -154 79
-149 86 -159 123 -172 39 -14 188 -21 199 -10 3 3 -74 152 -171 332 l-178 326
-69 15 c-121 28 -96 64 -245 -352z"/>
<path d="M6831 3939 c-24 -5 -45 -10 -46 -11 -1 -3 18 -382 64 -1242 13 -245
24 -372 31 -376 49 -30 230 -35 230 -7 0 7 -4 86 -10 177 -11 185 -12 208 -40
765 -12 220 -24 460 -28 534 l-7 135 -70 18 c-38 9 -72 17 -75 17 -3 -1 -25
-5 -49 -10z"/>
<path d="M6577 3873 l-49 -4 6 -102 c4 -66 3 -95 -3 -81 -7 15 -25 24 -71 34
-57 12 -82 10 -373 -30 -172 -24 -316 -47 -320 -50 -4 -4 -5 -30 -1 -58 l6
-50 64 -16 c51 -13 77 -14 126 -6 33 5 65 7 69 4 14 -9 10 -273 -5 -359 -35
-193 -118 -392 -211 -510 -18 -22 -35 -45 -38 -51 -10 -18 78 -74 148 -93 l65
-18 46 71 c46 72 121 221 145 289 7 20 16 37 19 37 3 0 21 -26 40 -57 19 -32
63 -89 97 -128 59 -66 67 -72 130 -89 l68 -18 26 31 c14 17 29 31 32 31 4 0 7
-26 7 -58 0 -33 3 -106 6 -164 l7 -106 64 -17 c86 -23 173 -14 173 18 0 18
-21 425 -55 1067 -14 271 -25 454 -28 455 -4 4 -136 35 -139 33 -2 -1 -25 -3
-51 -5z m-25 -535 c-6 -5 -203 -38 -230 -38 -4 0 -5 -25 -4 -55 4 -55 4 -55
45 -67 23 -7 78 -12 123 -12 l81 2 7 -114 c3 -63 9 -167 12 -231 l5 -118 -60
64 c-98 103 -190 283 -225 439 -18 80 -38 333 -28 343 4 4 63 14 132 23 77 10
127 21 130 29 2 6 8 -49 12 -123 4 -74 4 -138 0 -142z"/>
<path d="M4798 3653 c-38 -4 -38 -4 -38 -51 0 -26 7 -157 15 -292 20 -335 20
-336 -7 -343 -12 -4 -24 -5 -26 -3 -2 2 -10 134 -19 292 -9 159 -20 292 -25
295 -25 17 -125 30 -175 24 l-55 -7 7 -133 7 -133 -62 15 c-49 13 -78 14 -137
6 -52 -6 -76 -6 -78 1 -2 6 -6 44 -9 85 -3 41 -7 75 -9 76 -1 1 -29 8 -62 17
-54 14 -155 13 -169 -3 -2 -2 -1 -52 3 -112 l6 -107 -30 -5 c-39 -7 -233 -35
-240 -35 -3 0 -5 -24 -5 -54 l0 -55 58 -16 c68 -20 77 -21 165 -11 l67 8 0
-105 c0 -116 -18 -229 -54 -333 -42 -124 -126 -272 -185 -328 -17 -17 -31 -33
-31 -37 0 -18 100 -77 156 -92 33 -10 63 -17 66 -17 3 0 28 33 55 73 53 75
101 165 138 255 l22 53 62 -75 c84 -103 133 -140 212 -164 l67 -19 25 24 25
25 7 -158 c3 -88 10 -170 14 -184 6 -19 20 -28 66 -41 66 -20 153 -15 162 9 5
12 -14 405 -34 710 l-6 92 27 0 c19 0 27 -6 30 -22 3 -13 12 -165 21 -338 8
-173 18 -343 21 -376 l6 -61 59 -18 c42 -13 73 -16 115 -11 32 4 59 8 60 9 2
1 -17 356 -41 787 -25 432 -45 801 -45 821 l0 35 -72 17 c-40 10 -77 16 -83
15 -5 -1 -27 -3 -47 -5z m-308 -479 c0 -9 9 -171 20 -361 12 -190 19 -350 18
-355 -6 -16 -105 80 -152 146 -96 134 -141 259 -156 425 -5 63 -8 116 -6 119
4 4 223 39 259 41 9 1 17 -6 17 -15z"/>
<path d="M8425 3135 c-191 -35 -315 -109 -371 -218 -42 -81 -33 -191 19 -257
28 -36 85 -64 195 -96 140 -41 257 -47 398 -19 269 54 404 176 392 355 -9 118
-68 173 -234 216 -124 33 -282 40 -399 19z m365 -160 c24 -38 26 -104 5 -144
-46 -91 -241 -167 -424 -166 -36 1 -47 6 -66 29 -74 93 -11 212 140 268 84 31
109 37 189 45 33 3 62 6 63 7 1 1 18 0 38 -2 26 -3 40 -12 55 -37z"/>
<path d="M10255 3128 c-36 -32 -48 -88 -25 -125 15 -25 31 -32 108 -52 84 -20
94 -21 121 -7 49 26 62 104 24 148 -8 9 -49 24 -91 33 -42 9 -84 18 -94 21 -9
3 -28 -6 -43 -18z"/>
<path d="M1615 2884 c-137 -80 -253 -149 -258 -153 -6 -6 987 -588 1036 -607
20 -7 1072 595 1060 607 -24 23 -517 300 -527 296 -6 -3 -125 -71 -264 -151
-139 -80 -255 -146 -257 -146 -3 0 -121 68 -264 150 -143 83 -263 150 -268
150 -4 -1 -120 -66 -258 -146z"/>
<path d="M0 10 c0 -7 2007 -10 6000 -10 3993 0 6000 3 6000 10 0 7 -2007 10
-6000 10 -3993 0 -6000 -3 -6000 -10z"/>
</g>
</svg>
